<?xml version="1.0" encoding="UTF-8" standalone="no"?>
<svg xmlns:dc="http://purl.org/dc/elements/1.1/" xmlns:cc="http://creativecommons.org/ns#" xmlns:rdf="http://www.w3.org/1999/02/22-rdf-syntax-ns#" xmlns:svg="http://www.w3.org/2000/svg" xmlns="http://www.w3.org/2000/svg" xmlns:sodipodi="http://sodipodi.sourceforge.net/DTD/sodipodi-0.dtd" xmlns:inkscape="http://www.inkscape.org/namespaces/inkscape" version="1.1" x="0px" y="0px" viewBox="0 0 76 81" enable-background="new 0 0 80 80" xml:space="preserve" id="svg32" sodipodi:docname="noun_171323_cc.svg" width="76" height="81" inkscape:version="0.92.2 5c3e80d, 2017-08-06"><metadata id="metadata38"><rdf:RDF><cc:Work rdf:about=""><dc:format>image/svg+xml</dc:format><dc:type rdf:resource="http://purl.org/dc/dcmitype/StillImage"/><dc:title/></cc:Work></rdf:RDF></metadata><defs id="defs36"/><sodipodi:namedview pagecolor="#ffffff" bordercolor="#666666" borderopacity="1" objecttolerance="10" gridtolerance="10" guidetolerance="10" inkscape:pageopacity="0" inkscape:pageshadow="2" inkscape:window-width="640" inkscape:window-height="480" id="namedview34" showgrid="false" fit-margin-top="10" fit-margin-left="10" fit-margin-right="10" fit-margin-bottom="10" inkscape:zoom="2.36" inkscape:cx="38" inkscape:cy="28" inkscape:window-x="0" inkscape:window-y="0" inkscape:window-maximized="0" inkscape:current-layer="svg32"/><g id="g26" transform="translate(-2,3)"><g id="g4"><path d="M 68,68 H 12 V 23 H 68 Z M 14,66 H 66 V 25 H 14 Z" id="path2" inkscape:connector-curvature="0" style="fill:#000000"/></g><g id="g8"><path d="M 50,37 H 30 c -2.206,0 -4,-1.794 -4,-4 0,-2.206 1.794,-4 4,-4 h 20 c 2.206,0 4,1.794 4,4 0,2.206 -1.794,4 -4,4 z M 30,31 c -1.103,0 -2,0.897 -2,2 0,1.103 0.897,2 2,2 h 20 c 1.103,0 2,-0.897 2,-2 0,-1.103 -0.897,-2 -2,-2 z" id="path6" inkscape:connector-curvature="0" style="fill:#000000"/></g><g id="g12"><polygon points="64,9 16,9 16,24 14,24 14,7 66,7 66,24 64,24 " id="polygon10" style="fill:#000000"/></g><g id="g16"><polygon points="58,16 22,16 22,19 20,19 20,14 60,14 60,19 58,19 " id="polygon14" style="fill:#000000"/></g><g id="g20"><polygon points="60,20 20,20 20,23 18,23 18,18 62,18 62,23 60,23 " id="polygon18" style="fill:#000000"/></g><g id="g24"><polygon points="56,13 24,13 24,15 22,15 22,11 58,11 58,15 56,15 " id="polygon22" style="fill:#000000"/></g></g></svg>